<svg width="35" height="35" viewBox="0 0 35 35" fill="none" xmlns="http://www.w3.org/2000/svg">
<path fill-rule="evenodd" clip-rule="evenodd" d="M23.7497 2.91667H28.5134C30.4844 2.91667 32.0833 4.52944 32.0833 6.51902V11.3227C32.0833 13.3107 30.4844 14.925 28.5134 14.925H23.7497C21.7772 14.925 20.1783 13.3107 20.1783 11.3227V6.51902C20.1783 4.52944 21.7772 2.91667 23.7497 2.91667ZM6.48797 2.91667H11.2503C13.2227 2.91667 14.8216 4.52944 14.8216 6.51902V11.3227C14.8216 13.3107 13.2227 14.925 11.2503 14.925H6.48797C4.51551 14.925 2.91663 13.3107 2.91663 11.3227V6.51902C2.91663 4.52944 4.51551 2.91667 6.48797 2.91667ZM6.48797 20.075H11.2503C13.2227 20.075 14.8216 21.6878 14.8216 23.6789V28.481C14.8216 30.4706 13.2227 32.0833 11.2503 32.0833H6.48797C4.51551 32.0833 2.91663 30.4706 2.91663 28.481V23.6789C2.91663 21.6878 4.51551 20.075 6.48797 20.075ZM23.7497 20.075H28.5134C30.4844 20.075 32.0833 21.6878 32.0833 23.6789V28.481C32.0833 30.4706 30.4844 32.0833 28.5134 32.0833H23.7497C21.7772 32.0833 20.1783 30.4706 20.1783 28.481V23.6789C20.1783 21.6878 21.7772 20.075 23.7497 20.075Z" stroke="white" stroke-width="1.5" stroke-linecap="round" stroke-linejoin="round"/>
</svg>
